<?xml version="1.0" encoding="utf-8"?>
<!-- Generator: Adobe Illustrator 16.0.0, SVG Export Plug-In . SVG Version: 6.00 Build 0)  -->
<!DOCTYPE svg PUBLIC "-//W3C//DTD SVG 1.1//EN" "http://www.w3.org/Graphics/SVG/1.1/DTD/svg11.dtd">
<svg version="1.1" id="Layer_1" xmlns="http://www.w3.org/2000/svg" xmlns:xlink="http://www.w3.org/1999/xlink" x="0px" y="0px"
	 width="1200px" height="800px" viewBox="0 0 1200 800" style="enable-background:new 0 0 1200 800;" xml:space="preserve">
<path d="M1144.9,393.9c-5.4-12.1-14.8-22.6-26.7-28.6c-11.9-6.1-25.8-7-38.5-4.3c-12.8,2.4-25.1,8.8-33.5,18.9
	c-8.4,10-12.8,23.1-12.5,36c0.2,12.7,5.1,26.5,16.5,33.2c-11.1-7-15.6-20.7-15.6-33.2c0-12.7,4.6-25.4,13-34.9
	c8.3-9.6,20.2-15.4,32.6-17.5c12.4-2.3,25.5-1.1,36.4,4.9c11,5.8,19.5,15.8,24.3,27.2c4.9,11.4,6.1,24.2,4,36.4
	c-4.1,24.7-22,45.1-43.4,57.5c-10.7,6.4-22.5,10.9-34.6,14.7c-12.1,3.8-24.4,6.6-36.9,8.4c-25,3.8-50.5,3.9-75.8,1.5
	c-41.3-4.1-81.6-14.8-120.5-29.4c17.3-14.8,32.6-32.4,43.9-52.6c13-23.2,20.2-49.7,19-76.8c-1.1-26.9-12-54-31.6-73.2
	c-19.5-19.4-46.5-30-73.3-31.8c-27-2-53.6,3.9-78.1,14.3c-0.2,0.1-0.5,0.2-0.7,0.3c-9.4-5.4-19.6-9.5-30.2-12.3
	c-3.3-0.9-6.5-1.6-10-2.1c-1.8-0.3-3.3-0.5-4.9-0.7c-1.8-0.3-3.6-0.4-5.4-0.4c-7.1-0.2-13.8,0.5-20.5,1.7
	c-14.8,2.7-29.1,8.1-41.9,15.8c-12.8-7.8-27.1-13.1-41.9-15.8c-6.7-1.2-13.5-1.9-20.5-1.7c-1.8,0-3.6,0.2-5.4,0.4
	c-1.6,0.2-3.1,0.4-4.9,0.7c-3.5,0.6-6.7,1.2-10.1,2.1c-10.6,2.7-20.8,6.9-30.2,12.3c-0.2-0.1-0.5-0.2-0.7-0.3
	c-24.5-10.5-51.1-16.3-78.1-14.3c-26.8,1.9-53.8,12.4-73.3,31.8c-19.7,19.2-30.5,46.3-31.6,73.2c-1.2,27.1,6,53.6,19,76.8
	c11.3,20.2,26.6,37.8,43.9,52.6c-38.9,14.6-79.3,25.4-120.5,29.4c-25.2,2.4-50.7,2.3-75.8-1.5c-12.5-1.9-24.9-4.7-36.9-8.4
	c-12.1-3.8-23.9-8.4-34.6-14.7C77,477.2,59.2,456.8,55,432.1c-2.1-12.2-0.9-25,4-36.4c4.8-11.4,13.3-21.3,24.3-27.2
	c11-6,24-7.1,36.4-4.9c12.4,2,24.3,7.9,32.6,17.5c8.3,9.5,12.9,22.1,13,34.9c0.1,12.5-4.4,26.2-15.6,33.2
	c11.3-6.7,16.3-20.5,16.5-33.2c0.2-12.9-4.1-26-12.5-36c-8.4-10.1-20.7-16.5-33.5-18.9c-12.7-2.7-26.6-1.8-38.5,4.3
	c-11.9,6-21.3,16.4-26.7,28.6c-5.5,12.1-7.1,25.8-5.2,39c1.9,13.2,7.5,25.7,15.6,36.3c8,10.6,18.3,19.3,29.6,26.1
	c11.3,6.9,23.5,11.8,35.8,15.9c12.4,4.1,25.1,7.1,37.9,9.2c25.7,4.3,51.9,4.7,77.8,2.6c44.3-3.8,87.7-15,129.2-30.5
	c41,31.4,90.7,50,141.3,56c27.5,3.4,55.7,2.8,83-2.2c27.3,5,55.5,5.6,83,2.2c50.6-6,100.3-24.6,141.3-56
	c41.5,15.5,84.8,26.7,129.2,30.5c25.9,2.1,52.1,1.7,77.8-2.6c12.8-2.1,25.6-5.2,37.9-9.2c12.3-4.1,24.5-9,35.8-15.9
	c11.2-6.8,21.6-15.5,29.6-26.1c8-10.6,13.6-23.1,15.6-36.3C1152.1,419.8,1150.4,406,1144.9,393.9z M790.8,263.6
	c24.3,1.5,48.1,10.8,65.3,27.7c17.3,16.7,27.1,40.4,28.4,64.7c1.5,24.3-4.4,49.3-16.1,71.1c-10.9,20.6-26.4,38.7-44.2,54
	c-5.5-2.2-11-4.4-16.4-6.7c-19-8.1-37.7-17.1-56-26.9c7.6-11.7,13.9-24.2,18.1-37.7c8-25.1,8-53.1-1.2-78.3c-8-22.8-23-43-42.4-57.6
	C746.8,266,769.1,262.3,790.8,263.6z M487.3,279.7c0.1,0,0.1-0.1,0.2-0.1c20.4,9.6,39.8,22.4,58.5,35.8c2.7,2,5.5,3.9,8.2,5.9
	c-5.2,13.6-7.8,28.1-8.2,42.3c-0.3,6.7-0.2,13.4,0.4,20.1c-7,5.5-14.1,10.8-21.2,16c-23.2,16.5-47.3,31.7-72.3,45.3
	c-7.1-11.6-12.7-24.1-16.1-37.2c-6.5-24.1-5.3-50.1,4.1-72.8C450.1,312.2,466.7,292.7,487.3,279.7z M648.4,379.6
	c-12.9-10.1-25.7-20.5-38.6-30.9c9.6-7.6,19.3-15.1,29.1-22.4c5,11.8,8,24.6,8.9,37.6C648.4,369.1,648.5,374.3,648.4,379.6z
	 M647.3,393.8c-2.1,15.1-6.9,29.7-15.3,42.6c-8.1,12.9-19.3,23.4-32,31.9c-12.7-8.5-23.8-19-31.9-31.9
	c-8.4-12.9-13.3-27.5-15.3-42.6c16-12.2,31.6-24.8,47.3-37.2C615.6,369,631.3,381.5,647.3,393.8z M600,340.8
	c-11-8.8-22-17.5-33.3-25.9c3.8-6.6,8.3-12.7,13.6-18.1c5.8-6.2,12.5-11.6,19.7-16.2c7.2,4.6,13.8,10,19.7,16.2
	c5.3,5.4,9.8,11.5,13.6,18.1C622,323.4,611,332.1,600,340.8z M590.2,348.7c-12.9,10.4-25.7,20.7-38.6,30.9
	c-0.1-5.3,0.1-10.5,0.5-15.7c1-13,3.9-25.8,8.9-37.6C570.9,333.6,580.5,341.1,590.2,348.7z M532,409.2c5.5-4,11-8.1,16.4-12.2
	c2.9,14.7,8.5,28.7,17.2,40.9c8.9,12.6,20.3,22.9,33.1,31.1c-8.2,5.4-17.1,9.9-26.1,13.6c-22.8,9.1-47.2,14.3-71.8,15.5
	c-9.6-7.6-18.7-16.1-27-25.1c-5.3-5.9-10.3-12.1-14.9-18.6C484.2,440.8,508.6,425.7,532,409.2z M572.9,483.2
	c9.4-3.6,18.5-8,27.1-13.4c8.6,5.4,17.8,9.8,27.1,13.4c23,8.8,47.3,13.6,71.8,15c-10.3,8.1-21.3,15.3-32.9,21.2
	c-20.8,10.8-43.1,18.1-66,22.2c-23-4.1-45.3-11.4-66.1-22.2c-11.7-5.9-22.7-13.1-32.9-21.2C525.5,496.9,549.9,492.1,572.9,483.2z
	 M699.1,498.1c-24.5-1.2-48.9-6.4-71.8-15.5c-9-3.7-17.9-8.2-26.1-13.6c12.8-8.2,24.3-18.5,33.1-31.1c8.7-12.2,14.3-26.3,17.2-40.9
	c5.4,4.1,10.9,8.2,16.4,12.2c23.4,16.5,47.8,31.6,73,45.2c-4.6,6.5-9.6,12.7-14.9,18.6C717.8,482,708.8,490.5,699.1,498.1z
	 M674.8,399.7c-7.2-5.2-14.2-10.6-21.3-16.1c0.6-6.7,0.8-13.4,0.4-20.1c-0.4-14.2-3-28.7-8.2-42.3c2.7-2,5.5-4,8.2-5.9
	c18.8-13.4,38.1-26.1,58.5-35.8c0.1,0,0.1,0.1,0.2,0.1c20.5,13.1,37.2,32.5,46.4,55.3c9.4,22.8,10.6,48.7,4.1,72.8
	c-3.4,13.1-9,25.5-16.1,37.2C722.1,431.3,698,416.2,674.8,399.7z M644.1,263.6c6-1,12-1.5,17.8-1.2c1.4,0.1,2.8,0.2,4.2,0.4
	c1.5,0.2,3.3,0.4,4.6,0.7c2.8,0.5,5.9,1.1,8.8,1.8c6.6,1.6,12.9,3.9,19.1,6.7c-18.4,9.6-35.4,21.2-52,33.1c-2,1.5-4.1,3-6.1,4.4
	c-3.6-6.9-8-13.5-13.2-19.5c-5-5.7-10.5-10.9-16.5-15.5C621.3,269.2,632.6,265.6,644.1,263.6z M520.5,265.2c2.9-0.8,5.9-1.4,8.8-1.8
	c1.4-0.3,3.1-0.5,4.6-0.7c1.3-0.2,2.8-0.3,4.2-0.4c5.8-0.3,11.8,0.3,17.8,1.2c11.5,2,22.7,5.7,33.2,10.8c-6,4.6-11.5,9.8-16.5,15.5
	c-5.2,6-9.6,12.6-13.2,19.5c-2-1.5-4-3-6.1-4.4c-16.6-11.9-33.6-23.4-51.9-33.1C507.6,269.1,513.9,266.8,520.5,265.2z M331.7,427.1
	c-11.7-21.8-17.6-46.8-16.1-71.1c1.2-24.3,11-48,28.4-64.7c17.2-16.9,41-26.1,65.3-27.7c21.7-1.3,43.9,2.4,64.6,10.1
	c-19.4,14.6-34.4,34.9-42.4,57.6c-9.2,25.2-9.2,53.3-1.2,78.3c4.2,13.5,10.5,26,18.1,37.7c-18.3,9.8-37,18.8-56,26.9
	c-5.4,2.3-10.9,4.6-16.4,6.7C358,465.7,342.6,447.6,331.7,427.1z M517.7,543.1c-47.8-6.8-94.2-25.1-132.3-54.3
	c3.7-1.5,7.4-2.9,11.1-4.5c19.8-8.3,39.3-17.5,58.2-27.6c5,6.7,10.4,13.1,16.1,19.2c17.7,18.9,38.4,35,61.3,47.1
	c17.4,9.3,35.9,16.1,54.9,20.6C564,546.4,540.6,546.2,517.7,543.1z M682.3,543.1c-22.9,3.1-46.3,3.3-69.3,0.5
	c19.1-4.6,37.5-11.4,54.9-20.6c22.9-12.1,43.6-28.2,61.3-47.1c5.7-6,11.1-12.4,16.1-19.2c19,10.1,38.4,19.3,58.2,27.6
	c3.7,1.5,7.4,3,11.1,4.5C776.5,518,730.1,536.3,682.3,543.1z"/>
</svg>
